<svg width="256px" height="256px" viewBox="0 0 24 24" xmlns="http://www.w3.org/2000/svg" fill="#ffffff"><g id="SVGRepo_bgCarrier" stroke-width="0"></g><g id="SVGRepo_tracerCarrier" stroke-linecap="round" stroke-linejoin="round"></g><g id="SVGRepo_iconCarrier"> <defs> <style>.cls-1,.cls-2{fill:none;stroke:#ffffff;stroke-miterlimit:10;stroke-width:1.92px;}.cls-1{stroke-linecap:square;}</style> </defs> <g id="balance"> <path class="cls-1" d="M1.46,12.94H8.17a0,0,0,0,1,0,0v.73a3.11,3.11,0,0,1-3.11,3.11h-.5a3.11,3.11,0,0,1-3.11-3.11v-.73A0,0,0,0,1,1.46,12.94Z"></path> <path class="cls-2" d="M.5,5.27H5.92a3.18,3.18,0,0,0,2.29-1h0a3.24,3.24,0,0,1,2.29-1h3a3.27,3.27,0,0,1,2.31,1h0a3.27,3.27,0,0,0,2.32,1H23.5"></path> <line class="cls-2" x1="12" y1="0.48" x2="12" y2="22.52"></line> <line class="cls-2" x1="17.75" y1="22.52" x2="6.25" y2="22.52"></line> <polygon class="cls-1" points="5.29 5.27 4.33 5.27 1.46 11.98 1.46 12.94 8.17 12.94 8.17 11.98 5.29 5.27"></polygon> <path class="cls-1" d="M15.83,12.94h6.71a0,0,0,0,1,0,0v.73a3.11,3.11,0,0,1-3.11,3.11h-.5a3.11,3.11,0,0,1-3.11-3.11v-.73a0,0,0,0,1,0,0Z"></path> <polygon class="cls-1" points="19.67 5.27 18.71 5.27 15.83 11.98 15.83 12.94 22.54 12.94 22.54 11.98 19.67 5.27"></polygon> </g> </g></svg>